<svg width="31" height="31" viewBox="0 0 31 31" fill="none" xmlns="http://www.w3.org/2000/svg">
<path d="M10 8.5C10 9.32843 9.32843 10 8.5 10C7.67157 10 7 9.32843 7 8.5C7 7.67157 7.67157 7 8.5 7C9.32843 7 10 7.67157 10 8.5Z" fill="white"/>
<path d="M10 15.5C10 16.3284 9.32843 17 8.5 17C7.67157 17 7 16.3284 7 15.5C7 14.6716 7.67157 14 8.5 14C9.32843 14 10 14.6716 10 15.5Z" fill="white"/>
<path d="M10 22.5C10 23.3284 9.32843 24 8.5 24C7.67157 24 7 23.3284 7 22.5C7 21.6716 7.67157 21 8.5 21C9.32843 21 10 21.6716 10 22.5Z" fill="white"/>
<path d="M17 8.5C17 9.32843 16.3284 10 15.5 10C14.6716 10 14 9.32843 14 8.5C14 7.67157 14.6716 7 15.5 7C16.3284 7 17 7.67157 17 8.5Z" fill="white"/>
<path d="M17 15.5C17 16.3284 16.3284 17 15.5 17C14.6716 17 14 16.3284 14 15.5C14 14.6716 14.6716 14 15.5 14C16.3284 14 17 14.6716 17 15.5Z" fill="white"/>
<path d="M17 22.5C17 23.3284 16.3284 24 15.5 24C14.6716 24 14 23.3284 14 22.5C14 21.6716 14.6716 21 15.5 21C16.3284 21 17 21.6716 17 22.5Z" fill="white"/>
<path d="M24 8.5C24 9.32843 23.3284 10 22.5 10C21.6716 10 21 9.32843 21 8.5C21 7.67157 21.6716 7 22.5 7C23.3284 7 24 7.67157 24 8.5Z" fill="white"/>
<path d="M24 15.5C24 16.3284 23.3284 17 22.5 17C21.6716 17 21 16.3284 21 15.5C21 14.6716 21.6716 14 22.5 14C23.3284 14 24 14.6716 24 15.5Z" fill="white"/>
<path d="M24 22.5C24 23.3284 23.3284 24 22.5 24C21.6716 24 21 23.3284 21 22.5C21 21.6716 21.6716 21 22.5 21C23.3284 21 24 21.6716 24 22.5Z" fill="white"/>
</svg>
