<svg width="31" height="31" viewBox="0 0 31 31" fill="none" xmlns="http://www.w3.org/2000/svg">
<path fill-rule="evenodd" clip-rule="evenodd" d="M16.6154 20.2093C16.6154 18.668 17.8207 17.4186 19.3077 17.4186C20.7946 17.4186 22 18.668 22 20.2093C22 21.7506 20.7946 23 19.3077 23C17.8207 23 16.6154 21.7506 16.6154 20.2093ZM19.3077 18.5349C18.4155 18.5349 17.6923 19.2845 17.6923 20.2093C17.6923 21.1341 18.4155 21.8837 19.3077 21.8837C20.1999 21.8837 20.9231 21.1341 20.9231 20.2093C20.9231 19.2845 20.1999 18.5349 19.3077 18.5349Z" fill="white"/>
<path fill-rule="evenodd" clip-rule="evenodd" d="M16.6154 9.7907C16.6154 8.24945 17.8207 7 19.3077 7C20.7947 7 22 8.24945 22 9.7907C22 11.3319 20.7947 12.5814 19.3077 12.5814C17.8207 12.5814 16.6154 11.3319 16.6154 9.7907ZM19.3077 8.11628C18.4155 8.11628 17.6923 8.86594 17.6923 9.7907C17.6923 10.7155 18.4155 11.4651 19.3077 11.4651C20.1999 11.4651 20.9231 10.7155 20.9231 9.7907C20.9231 8.86594 20.1999 8.11628 19.3077 8.11628Z" fill="white"/>
<path fill-rule="evenodd" clip-rule="evenodd" d="M8 15C8 13.4587 9.2054 12.2093 10.6923 12.2093C12.1792 12.2093 13.3846 13.4587 13.3846 15C13.3846 16.5413 12.1792 17.7907 10.6923 17.7907C9.2054 17.7907 8 16.5413 8 15ZM10.6923 13.3256C9.80015 13.3256 9.07692 14.0752 9.07692 15C9.07692 15.9248 9.80015 16.6744 10.6923 16.6744C11.5845 16.6744 12.3077 15.9248 12.3077 15C12.3077 14.0752 11.5845 13.3256 10.6923 13.3256Z" fill="white"/>
<path fill-rule="evenodd" clip-rule="evenodd" d="M12.22 13.3991L17.2457 10.4224L17.78 11.3916L12.7543 14.3683L12.22 13.3991Z" fill="white"/>
<path fill-rule="evenodd" clip-rule="evenodd" d="M17.2457 19.5776L12.22 16.6009L12.7543 15.6317L17.78 18.6084L17.2457 19.5776Z" fill="white"/>
<path d="M12.8462 15C12.8462 16.233 11.8818 17.2326 10.6923 17.2326C9.50277 17.2326 8.53846 16.233 8.53846 15C8.53846 13.767 9.50277 12.7674 10.6923 12.7674C11.8818 12.7674 12.8462 13.767 12.8462 15Z" fill="white"/>
<path d="M21.4615 9.7907C21.4615 11.0237 20.4972 12.0233 19.3077 12.0233C18.1182 12.0233 17.1538 11.0237 17.1538 9.7907C17.1538 8.55769 18.1182 7.55814 19.3077 7.55814C20.4972 7.55814 21.4615 8.55769 21.4615 9.7907Z" fill="white"/>
<path d="M21.4615 20.2093C21.4615 21.4423 20.4972 22.4419 19.3077 22.4419C18.1182 22.4419 17.1538 21.4423 17.1538 20.2093C17.1538 18.9763 18.1182 17.9767 19.3077 17.9767C20.4972 17.9767 21.4615 18.9763 21.4615 20.2093Z" fill="white"/>
</svg>
